<!DOCTYPE svg PUBLIC "-//W3C//DTD SVG 1.1//EN" "http://www.w3.org/Graphics/SVG/1.1/DTD/svg11.dtd">
<svg width="100%" height="100%" xmlns="http://www.w3.org/2000/svg" viewBox="-1 -1 201 101" preserveAspectRatio="xMidYMid meet">
  <title>Scalable Vector Graphics (SVG) Demo</title>
  <path fill="#e6e6e6" fill-rule="evenodd" fill-opacity="none" stroke="#000000" stroke-width="1" d="M0,50 Q0,58 8,58 L8,92 Q0,92
    0,100 L200,100 Q200,92 192,92 L192,58 Q200,58 200,50 L132,33 L68,33 L0,50
    M124,33 L68,33 L68,92 L132,92 L132,33 L124,33
    M15,58 L25,58 L25,92 L15,92 L15,58
    M33,58 L43,58 L43,92 L33,92 L33,58
    M185,58 L175,58 L175,92 L185,92 L185,58
    M168,58 L158,58 L158,92 L168,92 L168,58
    "/>
  <path fill="#8c8c8c" fill-rule="evenodd" fill-opacity="none" stroke="#000000" stroke-width="1" d="M100,0 L50,33 Q50,41
      58,41 L58,92 Q50,92 50,100 L150,100 Q150,92 142,92 L142,41 Q150,41 150,33 L100,0
      M124,33 L76,33 Q76,41 68,41 L68,92 L132,92 L132,41 Q124,41 124,33"/>
  <defs> <path d="M124,49 L68,49 L68,92 L132,92 L132,49 L124,49"/> </defs>

  <text text-anchor="middle" x="100" y="72" textLength="44"  font-family="helvetica, sans-serif" font-size="20" fill="#000">UHG</text>


  <!-- drawing elements here L Q + xy -->
</svg>
