<svg version="1.1" xmlns="http://www.w3.org/2000/svg" xmlns:xlink="http://www.w3.org/1999/xlink" preserveAspectRatio="xMidYMid meet" viewBox="585 235 139 126"><g data-item-type="image" data-item="Image" data-logo-item="" id="logo__item--logo_0" class="logo__item">
    <g class="logo__item__inner" transform="translate(571.8731255760257 223) scale(1.0016695511470077 1.0016695511470077) rotate(0 0 0)">

<g>
	<path fill="#F15B48" d="M35.3,62.2c0,5.1-4.2,9.3-9.3,9.3c-5.1,0-9.3-4.2-9.3-9.3V24.4c0-5.2,4.2-9.3,9.3-9.3h37.8   c5.1,0,9.3,4.2,9.3,9.3c0,5.1-4.2,9.3-9.3,9.3H47.6c-11.8-0.2-12.4,3.2-12.3,14V62.2z" data-part-id="logo__item--logo_0__0"></path>
	<path fill="#1C4C5B" d="M116.7,62.2c0,5.1,4.2,9.3,9.3,9.3c5.2,0,9.3-4.2,9.3-9.3V24.4c0-5.2-4.2-9.3-9.3-9.3H88.2   c-5.2,0-9.3,4.2-9.3,9.3c0,5.1,4.2,9.3,9.3,9.3h16.2c11.8-0.2,12.4,3.2,12.3,14V62.2z" data-part-id="logo__item--logo_0__1"></path>
	<path fill="#1C4C5B" d="M35.3,87.8c0-5.1-4.2-9.3-9.3-9.3c-5.1,0-9.3,4.2-9.3,9.3v37.8c0,5.2,4.2,9.3,9.3,9.3h37.8   c5.1,0,9.3-4.2,9.3-9.3c0-5.1-4.2-9.3-9.3-9.3H47.6c-11.8,0.2-12.4-3.2-12.3-14V87.8z" data-part-id="logo__item--logo_0__2"></path>
	<path fill="#F15B48" d="M116.7,87.8c0-5.1,4.2-9.3,9.3-9.3c5.2,0,9.3,4.2,9.3,9.3v37.8c0,5.2-4.2,9.3-9.3,9.3H88.2   c-5.2,0-9.3-4.2-9.3-9.3c0-5.1,4.2-9.3,9.3-9.3h16.2c11.8,0.2,12.4-3.2,12.3-14V87.8z" data-part-id="logo__item--logo_0__3"></path>
	<path fill-rule="evenodd" clip-rule="evenodd" fill="#F15C48" d="M66.8,108.1h18.4c1.6,0,2.9-1.3,2.9-2.9V87.1h18.1   c1.6,0,2.9-1.3,2.9-2.9V65.8c0-1.6-1.3-2.9-2.9-2.9H88.2V44.8c0-1.6-1.3-2.9-2.9-2.9H66.8c-1.6,0-2.9,1.3-2.9,2.9v18.1H45.8   c-1.6,0-2.9,1.3-2.9,2.9v18.4c0,1.6,1.3,2.9,2.9,2.9h18.1v18.1C63.9,106.8,65.2,108.1,66.8,108.1z" data-part-id="logo__item--logo_0__4"></path>
</g>

    </g>
</g><g data-item-type="text" data-item="Business" id="logo__item--business" class="logo__item">
                <g class="logo__item__inner" transform="translate(655 357.1252096491599) scale(1.1057692307692308 1.1057692307692308) rotate(0 0 0)">
                    <text data-part-id="logo__item--business" dy="0" dominant-baseline="auto" alignment-baseline="auto" font-family="Philosopher" font-size="32px" fill="#1C4C5B" letter-spacing="0" font-weight="bold" font-style="italic" data-font-family="Philosopher" data-font-weight="bold" data-font-style="italic" data-ttf-url="/builder_assets/fontsttf/font-montserrat-bold-normal.ttf" data-font-filename="philosopher-bold-italic" vector-effect="non-scaling-stroke" stroke="#000000" stroke-width="0">LHG</text>
                </g>
            </g></svg>
